<svg width="48" height="48" viewBox="0 0 48 48" fill="none" xmlns="http://www.w3.org/2000/svg">
  <!-- Outer circle (dark green border) -->
  <circle cx="24" cy="24" r="24" fill="#1e4a2a" stroke="#0f2817" stroke-width="1"/>
  <!-- Inner circle (cream background) -->
  <circle cx="24" cy="24" r="20" fill="#f5f5dc"/>
  
  <!-- Three-leaf design centered -->
  <g transform="translate(24, 24)">
    <!-- Center leaf (tallest) -->
    <path d="M0 -12 C-1.5 -10, -2 -6, -2 -2 C-2 2, -1.5 6, 0 8 C1.5 6, 2 2, 2 -2 C2 -6, 1.5 -10, 0 -12 Z" 
          fill="#2d7d2d"/>
    
    <!-- Left leaf -->
    <path d="M-8 -4 C-10 -2, -10 0, -9 2 C-8 4, -6 5, -4 4 C-5 2, -6 0, -6 -2 C-6 -3, -7 -4, -8 -4 Z" 
          fill="#3d9b3d"/>
    
    <!-- Right leaf -->
    <path d="M8 -4 C10 -2, 10 0, 9 2 C8 4, 6 5, 4 4 C5 2, 6 0, 6 -2 C6 -3, 7 -4, 8 -4 Z" 
          fill="#3d9b3d"/>
    
    <!-- Small connecting stems -->
    <path d="M0 0 L-4 2" stroke="#2d7d2d" stroke-width="1" stroke-linecap="round"/>
    <path d="M0 0 L4 2" stroke="#2d7d2d" stroke-width="1" stroke-linecap="round"/>
    <path d="M0 0 L0 6" stroke="#2d7d2d" stroke-width="1.5" stroke-linecap="round"/>
  </g>
  
  <!-- Subtle shadow effect -->
  <defs>
    <filter id="shadow" x="-50%" y="-50%" width="200%" height="200%">
      <feDropShadow dx="1" dy="2" stdDeviation="2" flood-color="#000000" flood-opacity="0.1"/>
    </filter>
  </defs>
  <circle cx="24" cy="24" r="24" fill="none" filter="url(#shadow)"/>
</svg>
